<?xml version="1.0" encoding="utf-8"?>
<!-- Generator: Adobe Illustrator 24.0.1, SVG Export Plug-In . SVG Version: 6.00 Build 0)  -->
<svg version="1.1" xmlns="http://www.w3.org/2000/svg" xmlns:xlink="http://www.w3.org/1999/xlink" x="0px" y="0px"
	 viewBox="0 0 595.28 841.89" style="enable-background:new 0 0 595.28 841.89;" xml:space="preserve">
<style type="text/css">
	.st0{fill:#FFFFFF;}
	.st1{fill:#ED1C24;}
</style>
<g id="FONDO">
</g>
<g id="ESCUDO">
	<g>
		<g>
			<path d="M530.66,252.48l-1.46-27.01h-27.04c-16.67,0-31.8-8.44-40.47-22.57l-17.48-28.5h-3.78l-23.25,23.23
				c-13.27,13.26-30.9,20.56-49.67,20.56c-18.76,0-36.41-7.31-49.68-20.58l-20.18-20.18l-20.19,20.18
				c-13.27,13.27-30.91,20.58-49.69,20.58c-18.75,0-36.39-7.3-49.66-20.56l-23.25-23.23h-3.79l-17.47,28.5
				c-8.67,14.14-23.8,22.57-40.47,22.57H66.09l-1.46,27.01c-5.91,109.26,19.31,204.24,74.97,282.31
				c46.44,65.15,104.32,104.29,144.69,125.65l13.35,7.06l13.35-7.06c40.38-21.36,98.26-60.5,144.7-125.65
				C511.34,456.71,536.56,361.73,530.66,252.48z"/>
		</g>
		<g>
			<g>
				<path class="st0" d="M297.63,651.99l-6.94-3.67c-39.06-20.67-95.06-58.52-139.94-121.49c-53.8-75.47-78.17-167.53-72.44-273.61
					l0.76-14.04h14.06c21.47,0,40.97-10.89,52.15-29.12l9.84-16.04l13.31,13.3c15.86,15.84,36.93,24.57,59.35,24.57
					c22.43,0,43.52-8.73,59.37-24.59l10.49-10.5l10.5,10.5c15.86,15.86,36.94,24.59,59.37,24.59c22.42,0,43.5-8.73,59.35-24.57
					l13.31-13.3l9.84,16.04c11.18,18.23,30.68,29.12,52.15,29.12h14.06l0.76,14.04c5.73,106.08-18.64,198.14-72.45,273.61
					c-44.89,62.96-100.89,100.82-139.95,121.49L297.63,651.99z"/>
			</g>
			<g>
				<path class="st1" d="M502.15,254.02c-27.45,0-51.49-14.49-64.8-36.2c-38.59,38.56-101.13,38.55-139.71-0.03
					c-20.47,20.47-47.68,30.08-74.48,28.83l238.69,222.58C489.47,413.7,506.97,343.08,502.15,254.02z"/>
				<path class="st1" d="M297.63,634.87c23.62-12.49,54.27-31.52,84.65-59.72L92.82,305.22
					C101.64,505.19,229.17,598.65,297.63,634.87z"/>
			</g>
			<path d="M314.92,460.65c-1.62-3.79-4.2-9.35-5.01-16.19l-8.21-69.72c-0.16-1.59,0.09-1.63,1.8-2.49c1.54-0.77,2.61-4.55,0.2-6.79
				l-36.01-33.55c-3.61-3.61-6.64-0.87-5.44,3.9c1.32,5.22,0,0,1.32,5.22c0.91,3.62,1.78,7.67,0.18,11.16
				c-16.63,36.34,0.01,0-16.63,36.34c-1.5,3.27-2.41,3.25-6.51,3.25c-3.14,0-4.26,3.54-2.79,4.92c0,0,12.93,11.93,14.71,13.72
				c1.78,1.78,4.22-1.62,2.57-5.46c-1.62-3.78-1.62-3.79,1.38-10.34l26.53,24.73c0,0,0,0,0.66,5.62c0.29,2.48-0.05,3.08-4.15,3.08
				c-3.14,0-4.26,3.54-2.79,4.92c0,0,34.02,31.6,35.8,33.38l-0.18-0.26C314.14,467.89,316.57,464.49,314.92,460.65z M260.14,386.64
				l14.01-30.6c1.36,1.39,1.66,2.68,2.12,6.11l5.24,44.41L260.14,386.64z"/>
			<g>
				<path d="M215.39,316.1c-6.96,1.07-7.13,3.33-6.9,6.53c0.75,10.43-1.7,15.49-9.14,15.49c-9.22,0-13.49-9.39-12.48-44.66
					c0.19-6.61,3.6-12.55,10.16-12.55c6.56,0,9.53,8.12,10.92,16.42c0.53,3.16,1.82,5.45,8.78,6.53c6.94,1.07,8.11-1.64,8.02-4.55
					c-4.05-24.88-16.93-35.7-34.37-35.7c-19.19,0-34.75,14.38-34.75,43.19c0,28.82,15.56,43.19,34.75,43.19
					c15.43,0,26.41-6.56,33.04-27.91C224.02,318.8,223.39,314.87,215.39,316.1z"/>
			</g>
			<path d="M383.38,454.76c0-2.84,2.43-3.34,4.31-3.89c1.85-0.55,3.1-3.99,0.24-6.85l-30.56-28.58c-3.62-3.62-6.95,0.98-4.75,5.38
				c2.18,4.36,4.87,10.08,4.87,15.35v57.05c0,2.85-2.43,3.34-4.3,3.9c-1.86,0.55-3.1,3.99-0.24,6.85l30.56,28.58
				c3.62,3.62,6.95-0.98,4.75-5.38c-2.17-4.36-4.87-10.07-4.87-15.35V454.76z"/>
			<path d="M152.58,263.71c0,4.3-3.48,7.79-7.79,7.79c-4.3,0-7.79-3.49-7.79-7.79c0-4.3,3.49-7.79,7.79-7.79
				C149.09,255.93,152.58,259.41,152.58,263.71z"/>
			<path d="M242.73,347.62c0,4.3-3.48,7.79-7.79,7.79c-4.3,0-7.79-3.49-7.79-7.79c0-4.3,3.49-7.79,7.79-7.79
				C239.25,339.83,242.73,343.32,242.73,347.62z"/>
			<path d="M340.34,438.7c0,4.3-3.49,7.79-7.79,7.79c-4.3,0-7.78-3.49-7.78-7.79c0-4.3,3.48-7.79,7.78-7.79
				C336.85,430.92,340.34,434.4,340.34,438.7z"/>
			<path d="M416.64,509.87c0,4.3-3.49,7.79-7.79,7.79c-4.3,0-7.79-3.49-7.79-7.79c0-4.3,3.49-7.79,7.79-7.79
				C413.15,502.08,416.64,505.57,416.64,509.87z"/>
		</g>
	</g>
</g>
</svg>
